<?xml version="1.0" encoding="utf-8"?>
<!-- Generator: Adobe Illustrator 22.0.0, SVG Export Plug-In . SVG Version: 6.00 Build 0)  -->
<!DOCTYPE svg PUBLIC "-//W3C//DTD SVG 1.1//EN" "http://www.w3.org/Graphics/SVG/1.1/DTD/svg11.dtd" [
	<!ENTITY st0 "fill:url(#SVGID_1_);">
	<!ENTITY st1 "fill:url(#SVGID_2_);">
	<!ENTITY st2 "fill:url(#SVGID_3_);">
	<!ENTITY st3 "fill:url(#SVGID_4_);">
	<!ENTITY st4 "fill:url(#SVGID_5_);">
	<!ENTITY st5 "fill:url(#SVGID_6_);">
	<!ENTITY st6 "fill:url(#SVGID_7_);">
	<!ENTITY st7 "fill:url(#SVGID_8_);">
	<!ENTITY st8 "fill:url(#SVGID_9_);">
	<!ENTITY st9 "fill:#000720;">
]>
<svg version="1.1" id="Layer_1" xmlns="http://www.w3.org/2000/svg" xmlns:xlink="http://www.w3.org/1999/xlink" x="0px" y="0px"
	 viewBox="0 0 298.5 58.6" style="enable-background:new 0 0 298.5 58.6;" xml:space="preserve">
<g>
	<g>
		
			<linearGradient id="SVGID_1_" gradientUnits="userSpaceOnUse" x1="69.0148" y1="28.9493" x2="298.4376" y2="28.9493" gradientTransform="matrix(1 0 0 1 0 5)">
			<stop  offset="0" style="stop-color:#72B3FF"/>
			<stop  offset="0.2279" style="stop-color:#6DA9F8"/>
			<stop  offset="1" style="stop-color:#5E8BE2"/>
		</linearGradient>
		<path style="&st0;" d="M82,46.4c-3.6,0-6.7-0.9-9.1-2.8s-3.8-4.3-3.9-7.5h8.2c0.1,1.3,0.6,2.3,1.6,3c1,0.6,2.1,1,3.3,1
			c1.1,0,2.1-0.2,2.9-0.7c0.8-0.5,1.3-1.2,1.3-2c0-0.7-0.3-1.2-0.8-1.8c-0.6-0.5-1.2-0.9-1.8-1.2c-0.7-0.3-1.7-0.6-3.1-1.1
			c-1.9-0.7-3.4-1.3-4.6-1.9c-1.2-0.6-2.3-1.2-3.3-2c-1.1-0.8-1.8-1.7-2.3-2.8c-0.5-1-0.7-2.3-0.7-3.7c0-2.8,1.1-5,3.3-6.6
			c2.2-1.6,5.1-2.4,8.8-2.4c3.4,0,6.3,0.8,8.6,2.4c2.3,1.6,3.5,4,3.6,7.2h-8.1c-0.1-1.1-0.6-2-1.3-2.6c-0.8-0.6-1.7-0.9-2.9-0.9
			c-1.1,0-2,0.2-2.8,0.6c-0.8,0.4-1.2,1.1-1.2,2c0,0.6,0.3,1.2,0.8,1.7c0.5,0.5,1,0.8,1.5,1s1.3,0.5,2.7,0.9
			c0.3,0.1,0.6,0.2,0.8,0.3c2,0.7,3.5,1.2,4.7,1.8c1.2,0.5,2.3,1.2,3.4,2c1.1,0.8,1.8,1.7,2.3,2.8c0.4,1.1,0.7,2.4,0.7,3.8
			c0,2.9-1.1,5.2-3.4,6.9C88.7,45.6,85.7,46.4,82,46.4z"/>
		
			<linearGradient id="SVGID_2_" gradientUnits="userSpaceOnUse" x1="69.0148" y1="28.9493" x2="298.4376" y2="28.9493" gradientTransform="matrix(1 0 0 1 0 5)">
			<stop  offset="0" style="stop-color:#72B3FF"/>
			<stop  offset="0.2279" style="stop-color:#6DA9F8"/>
			<stop  offset="1" style="stop-color:#5E8BE2"/>
		</linearGradient>
		<path style="&st1;" d="M103.4,20.1c-1.2,0-2.3-0.4-3.1-1.3c-0.9-0.9-1.3-1.9-1.3-3.1c0-1.2,0.4-2.2,1.3-3c0.9-0.8,1.9-1.3,3.1-1.3
			c1.2,0,2.2,0.4,3.1,1.3c0.9,0.9,1.3,1.9,1.3,3c0,1.2-0.4,2.2-1.3,3.1C105.6,19.6,104.6,20.1,103.4,20.1z M99.5,45.8V22.7h7.7v23.1
			H99.5z"/>
		
			<linearGradient id="SVGID_3_" gradientUnits="userSpaceOnUse" x1="69.0148" y1="28.9493" x2="298.4376" y2="28.9493" gradientTransform="matrix(1 0 0 1 0 5)">
			<stop  offset="0" style="stop-color:#72B3FF"/>
			<stop  offset="0.2279" style="stop-color:#6DA9F8"/>
			<stop  offset="1" style="stop-color:#5E8BE2"/>
		</linearGradient>
		<path style="&st2;" d="M125.9,56.5c-3.3,0-6.2-0.8-8.5-2.4c-2.3-1.6-3.9-3.9-4.7-7h8.3c0.9,2,2.5,3.1,4.9,3.1c1.6,0,2.9-0.5,4-1.4
			s1.6-2.3,1.6-4v-3.4l-0.1,0c-0.6,1.1-1.6,1.9-3,2.6c-1.4,0.7-2.9,1-4.5,1c-2.9,0-5.5-1-7.9-3.1c-2.3-2-3.5-4.8-3.5-8.1
			c0-3.3,1.2-6,3.6-8.2c2.4-2.2,5.1-3.3,8.1-3.3c1.5,0,2.9,0.3,4.4,0.9c1.4,0.6,2.4,1.5,3,2.6h0.1l0.3-2.8h6.8v21.3
			c0,4.1-1.2,7.2-3.6,9.4C132.8,55.4,129.7,56.5,125.9,56.5z M126.1,38.6c1.4,0,2.6-0.5,3.6-1.5c1-1,1.5-2.2,1.5-3.5
			c0-1.4-0.5-2.6-1.5-3.5c-1-1-2.2-1.5-3.6-1.5c-1.4,0-2.7,0.5-3.7,1.5c-1,1-1.5,2.2-1.5,3.6c0,1.3,0.5,2.5,1.5,3.5
			C123.4,38.1,124.7,38.6,126.1,38.6z"/>
		
			<linearGradient id="SVGID_4_" gradientUnits="userSpaceOnUse" x1="69.0148" y1="28.9493" x2="298.4376" y2="28.9493" gradientTransform="matrix(1 0 0 1 0 5)">
			<stop  offset="0" style="stop-color:#72B3FF"/>
			<stop  offset="0.2279" style="stop-color:#6DA9F8"/>
			<stop  offset="1" style="stop-color:#5E8BE2"/>
		</linearGradient>
		<path style="&st3;" d="M173.3,22c3.1,0,5.7,1,7.6,3c1.9,2,2.9,4.6,2.9,7.7v13H176V33.2c0-1.2-0.4-2.2-1.1-3
			c-0.7-0.8-1.6-1.2-2.7-1.2c-1,0-1.9,0.4-2.7,1.3c-0.8,0.8-1.1,1.8-1.1,3v12.6h-7.7V33.2c0-1.2-0.4-2.2-1.1-3
			c-0.7-0.8-1.6-1.2-2.7-1.2c-1.1,0-2,0.4-2.7,1.3c-0.8,0.8-1.1,1.8-1.1,3v12.6h-7.7V22.7h6.8l0.5,2.8h0.1c0.7-1.1,1.6-1.9,2.8-2.5
			c1.1-0.6,2.3-0.9,3.5-0.9c2.9,0,5.3,1.1,7.1,3.3C167.7,23.1,170.2,22,173.3,22z"/>
		
			<linearGradient id="SVGID_5_" gradientUnits="userSpaceOnUse" x1="69.0148" y1="28.9493" x2="298.4376" y2="28.9493" gradientTransform="matrix(1 0 0 1 0 5)">
			<stop  offset="0" style="stop-color:#72B3FF"/>
			<stop  offset="0.2279" style="stop-color:#6DA9F8"/>
			<stop  offset="1" style="stop-color:#5E8BE2"/>
		</linearGradient>
		<path style="&st4;" d="M199.9,46.4c-3,0-5.7-1.1-8.2-3.4c-2.4-2.3-3.7-5.2-3.7-8.7c0-3.5,1.2-6.5,3.7-8.7c2.4-2.3,5.2-3.4,8.2-3.4
			c1.5,0,2.9,0.3,4.3,0.9c1.4,0.6,2.4,1.5,3,2.5h0.1l0.3-2.8h6.8v23.1h-6.8l-0.3-2.8h-0.1c-0.6,1.1-1.6,2-3,2.6
			C202.8,46.1,201.4,46.4,199.9,46.4z M197.4,38c1.1,1.1,2.3,1.6,3.8,1.6c1.5,0,2.8-0.5,3.8-1.6c1.1-1.1,1.6-2.3,1.6-3.8
			s-0.5-2.8-1.6-3.8c-1.1-1.1-2.3-1.6-3.8-1.6c-1.5,0-2.8,0.5-3.8,1.6c-1.1,1.1-1.6,2.3-1.6,3.8S196.4,37,197.4,38z"/>
		
			<linearGradient id="SVGID_6_" gradientUnits="userSpaceOnUse" x1="69.0148" y1="28.9493" x2="298.4376" y2="28.9493" gradientTransform="matrix(1 0 0 1 0 5)">
			<stop  offset="0" style="stop-color:#72B3FF"/>
			<stop  offset="0.2279" style="stop-color:#6DA9F8"/>
			<stop  offset="1" style="stop-color:#5E8BE2"/>
		</linearGradient>
		<path style="&st5;" d="M243.1,46.4c-3.6,0-6.7-0.9-9.1-2.8c-2.5-1.8-3.8-4.3-3.9-7.5h8.2c0.1,1.3,0.6,2.3,1.6,3c1,0.6,2.1,1,3.3,1
			c1.1,0,2.1-0.2,2.9-0.7c0.8-0.5,1.3-1.2,1.3-2c0-0.7-0.3-1.2-0.8-1.8c-0.6-0.5-1.2-0.9-1.8-1.2c-0.7-0.3-1.7-0.6-3.1-1.1
			c-1.9-0.7-3.4-1.3-4.6-1.9c-1.2-0.6-2.3-1.2-3.3-2c-1.1-0.8-1.8-1.7-2.3-2.8c-0.5-1-0.7-2.3-0.7-3.7c0-2.8,1.1-5,3.3-6.6
			c2.2-1.6,5.1-2.4,8.8-2.4c3.4,0,6.3,0.8,8.6,2.4c2.3,1.6,3.5,4,3.6,7.2h-8.1c-0.1-1.1-0.6-2-1.3-2.6c-0.8-0.6-1.7-0.9-2.9-0.9
			c-1.1,0-2,0.2-2.8,0.6c-0.8,0.4-1.2,1.1-1.2,2c0,0.6,0.3,1.2,0.8,1.7c0.5,0.5,1,0.8,1.5,1c0.5,0.2,1.3,0.5,2.7,0.9
			c0.3,0.1,0.6,0.2,0.8,0.3c2,0.7,3.5,1.2,4.7,1.8c1.2,0.5,2.3,1.2,3.4,2c1.1,0.8,1.8,1.7,2.3,2.8c0.4,1.1,0.7,2.4,0.7,3.8
			c0,2.9-1.1,5.2-3.4,6.9C249.8,45.6,246.8,46.4,243.1,46.4z"/>
		
			<linearGradient id="SVGID_7_" gradientUnits="userSpaceOnUse" x1="69.0148" y1="28.9493" x2="298.4376" y2="28.9493" gradientTransform="matrix(1 0 0 1 0 5)">
			<stop  offset="0" style="stop-color:#72B3FF"/>
			<stop  offset="0.2279" style="stop-color:#6DA9F8"/>
			<stop  offset="1" style="stop-color:#5E8BE2"/>
		</linearGradient>
		<path style="&st6;" d="M264.5,20.1c-1.2,0-2.3-0.4-3.1-1.3c-0.9-0.9-1.3-1.9-1.3-3.1c0-1.2,0.4-2.2,1.3-3c0.9-0.8,1.9-1.3,3.1-1.3
			c1.2,0,2.2,0.4,3.1,1.3c0.9,0.9,1.3,1.9,1.3,3c0,1.2-0.4,2.2-1.3,3.1C266.7,19.6,265.6,20.1,264.5,20.1z M260.6,45.8V22.7h7.7
			v23.1H260.6z"/>
		
			<linearGradient id="SVGID_8_" gradientUnits="userSpaceOnUse" x1="69.0148" y1="28.9493" x2="298.4376" y2="28.9493" gradientTransform="matrix(1 0 0 1 0 5)">
			<stop  offset="0" style="stop-color:#72B3FF"/>
			<stop  offset="0.2279" style="stop-color:#6DA9F8"/>
			<stop  offset="1" style="stop-color:#5E8BE2"/>
		</linearGradient>
		<path style="&st7;" d="M298.4,45.8h-8.8l-4.6-6.3l-4.7,6.3h-8.8l9-11.7l-8.8-11.4h8.8l4.4,6l4.4-6h8.8l-8.8,11.4L298.4,45.8z"/>
	</g>
</g>
<linearGradient id="SVGID_9_" gradientUnits="userSpaceOnUse" x1="11.1755" y1="11.7247" x2="46.3007" y2="46.8499">
	<stop  offset="0" style="stop-color:#92BFCF"/>
	<stop  offset="0.2724" style="stop-color:#77A0EC"/>
	<stop  offset="0.4872" style="stop-color:#668DFF"/>
	<stop  offset="0.6279" style="stop-color:#638DFB"/>
	<stop  offset="0.7593" style="stop-color:#5B8DF0"/>
	<stop  offset="0.8866" style="stop-color:#4D8DDD"/>
	<stop  offset="0.9897" style="stop-color:#3D8DC8"/>
</linearGradient>
<circle style="&st8;" cx="28.7" cy="29.3" r="24.8"/>
<g>
	<path style="&st9;" d="M20.7,17.8h18.8l-0.3,6h-0.9c0-0.6-0.1-1.1-0.2-1.5c-0.1-0.4-0.2-0.8-0.4-1.1c-0.2-0.3-0.4-0.6-0.6-0.8
		c-0.2-0.2-0.5-0.4-0.7-0.6c-0.3-0.1-0.6-0.2-1-0.3c-0.4-0.1-1-0.1-1.6-0.1h-7.7l6.4,8.9l-9.5,9.2h8.7c0.8,0,1.6-0.1,2.3-0.2
		c0.7-0.1,1.2-0.3,1.7-0.6c0.5-0.3,1-0.7,1.4-1.2c0.4-0.5,0.8-1.2,1.2-2l0.9,0.2l-1.9,7.1H17.9L18,40l10.6-10.3l-7.9-11.2L20.7,17.8
		z"/>
</g>
</svg>
