<?xml version="1.0" encoding="utf-8"?>
<!-- Generator: Adobe Illustrator 22.0.0, SVG Export Plug-In . SVG Version: 6.00 Build 0)  -->
<!DOCTYPE svg PUBLIC "-//W3C//DTD SVG 1.1//EN" "http://www.w3.org/Graphics/SVG/1.1/DTD/svg11.dtd" [
	<!ENTITY st0 "fill:url(#SVGID_1_);">
	<!ENTITY st1 "fill:#000720;">
]>
<svg version="1.1" id="Layer_1" xmlns="http://www.w3.org/2000/svg" xmlns:xlink="http://www.w3.org/1999/xlink" x="0px" y="0px"
	 viewBox="0 0 102.5 102.5" style="enable-background:new 0 0 102.5 102.5;" xml:space="preserve">
<linearGradient id="SVGID_1_" gradientUnits="userSpaceOnUse" x1="15.1224" y1="15.1224" x2="87.3776" y2="87.3776">
	<stop  offset="0" style="stop-color:#92BFCF"/>
	<stop  offset="0.2724" style="stop-color:#77A0EC"/>
	<stop  offset="0.4872" style="stop-color:#668DFF"/>
	<stop  offset="0.6279" style="stop-color:#638DFB"/>
	<stop  offset="0.7593" style="stop-color:#5B8DF0"/>
	<stop  offset="0.8866" style="stop-color:#4D8DDD"/>
	<stop  offset="0.9897" style="stop-color:#3D8DC8"/>
</linearGradient>
<circle style="&st0;" cx="51.3" cy="51.3" r="51.1"/>
<g>
	<path style="&st1;" d="M36.3,29.7h35.2L71,40.9h-1.7c0-1.1-0.1-2-0.3-2.8c-0.2-0.8-0.5-1.5-0.8-2c-0.3-0.6-0.7-1.1-1.1-1.4
		c-0.4-0.4-0.9-0.7-1.4-1c-0.5-0.2-1.1-0.4-1.9-0.6c-0.8-0.2-1.8-0.2-3-0.2H46.5l12,16.6L40.7,66.6H57c1.6,0,3-0.1,4.2-0.4
		c1.2-0.3,2.3-0.6,3.2-1.1c1-0.5,1.9-1.3,2.7-2.2c0.8-1,1.5-2.2,2.2-3.7l1.6,0.3l-3.6,13.3H31l0.2-1.5L51,52.1l-14.9-21L36.3,29.7z"
		/>
</g>
</svg>
